<svg width="41" height="40" viewBox="0 0 41 40" fill="none" xmlns="http://www.w3.org/2000/svg">
<g id="solar:link-circle-bold">
<path id="Vector" fill-rule="evenodd" clip-rule="evenodd" d="M6.5235 34.2252C8.96683 36.6668 12.8935 36.6668 20.7502 36.6668C28.6068 36.6668 32.5352 36.6668 34.9752 34.2252C37.4168 31.7868 37.4168 27.8568 37.4168 20.0002C37.4168 12.1435 37.4168 8.21516 34.9752 5.7735C32.5368 3.3335 28.6068 3.3335 20.7502 3.3335C12.8935 3.3335 8.96516 3.3335 6.5235 5.7735C4.0835 8.21683 4.0835 12.1435 4.0835 20.0002C4.0835 27.8568 4.0835 31.7852 6.5235 34.2252ZM16.5835 14.5835C15.5122 14.5835 14.4649 14.9012 13.5742 15.4964C12.6834 16.0916 11.9891 16.9375 11.5791 17.9273C11.1692 18.9171 11.0619 20.0062 11.2709 21.0569C11.4799 22.1076 11.9958 23.0728 12.7533 23.8303C13.5109 24.5879 14.476 25.1037 15.5268 25.3127C16.5775 25.5218 17.6666 25.4145 18.6564 25.0045C19.6461 24.5945 20.4921 23.9003 21.0873 23.0095C21.6825 22.1187 22.0002 21.0715 22.0002 20.0002C22.0002 19.6686 22.1319 19.3507 22.3663 19.1163C22.6007 18.8819 22.9186 18.7502 23.2502 18.7502C23.5817 18.7502 23.8996 18.8819 24.134 19.1163C24.3685 19.3507 24.5002 19.6686 24.5002 20.0002C24.5002 21.5659 24.0359 23.0965 23.166 24.3984C22.2961 25.7003 21.0597 26.715 19.6131 27.3142C18.1665 27.9134 16.5747 28.0702 15.039 27.7647C13.5033 27.4592 12.0927 26.7053 10.9856 25.5981C9.8784 24.4909 9.12441 23.0803 8.81895 21.5446C8.51348 20.0089 8.67026 18.4172 9.26945 16.9706C9.86864 15.524 10.8833 14.2876 12.1852 13.4177C13.4871 12.5478 15.0177 12.0835 16.5835 12.0835C16.915 12.0835 17.233 12.2152 17.4674 12.4496C17.7018 12.684 17.8335 13.002 17.8335 13.3335C17.8335 13.665 17.7018 13.983 17.4674 14.2174C17.233 14.4518 16.915 14.5835 16.5835 14.5835ZM30.3335 20.0002C30.3335 21.4368 29.7628 22.8145 28.747 23.8303C27.7312 24.8461 26.3534 25.4168 24.9168 25.4168C24.5853 25.4168 24.2674 25.5485 24.0329 25.7829C23.7985 26.0174 23.6668 26.3353 23.6668 26.6668C23.6668 26.9984 23.7985 27.3163 24.0329 27.5507C24.2674 27.7851 24.5853 27.9168 24.9168 27.9168C26.4826 27.9168 28.0132 27.4525 29.3151 26.5826C30.617 25.7127 31.6317 24.4763 32.2309 23.0297C32.8301 21.5832 32.9868 19.9914 32.6814 18.4557C32.3759 16.92 31.6219 15.5094 30.5148 14.4022C29.4076 13.2951 27.997 12.5411 26.4613 12.2356C24.9256 11.9301 23.3338 12.0869 21.8873 12.6861C20.4407 13.2853 19.2043 14.3 18.3344 15.6019C17.4645 16.9038 17.0002 18.4344 17.0002 20.0002C17.0002 20.3317 17.1319 20.6496 17.3663 20.884C17.6007 21.1185 17.9186 21.2502 18.2502 21.2502C18.5817 21.2502 18.8996 21.1185 19.134 20.884C19.3685 20.6496 19.5002 20.3317 19.5002 20.0002C19.5002 18.5636 20.0708 17.1858 21.0867 16.17C22.1025 15.1542 23.4802 14.5835 24.9168 14.5835C26.3534 14.5835 27.7312 15.1542 28.747 16.17C29.7628 17.1858 30.3335 18.5636 30.3335 20.0002Z" fill="#633CFF"/>
</g>
</svg>
